<svg width="1440" height="1853" viewBox="0 0 1440 1853" fill="none" xmlns="http://www.w3.org/2000/svg">
<g clip-path="url(#clip0_43_527)">
<rect width="1440" height="1853" fill="#FAF1EA"/>
<rect x="-0.0901415" y="0.332679" width="879.154" height="662.41" rx="99.75" transform="matrix(0.518934 0.854815 -0.8795 0.475899 722.307 1617.71)" stroke="#BBAACC" stroke-width="0.5"/>
<rect x="-0.0901415" y="0.332679" width="879.154" height="662.41" rx="99.75" transform="matrix(0.518934 0.854815 -0.8795 0.475899 1222.31 1617.71)" stroke="#BBAACC" stroke-width="0.5"/>
<rect x="-0.0901415" y="0.332679" width="879.154" height="662.41" rx="99.75" transform="matrix(0.518934 0.854815 -0.8795 0.475899 1722.28 1617.71)" stroke="#BBAACC" stroke-width="0.5"/>
<rect x="-0.0901415" y="0.332679" width="879.154" height="662.41" rx="99.75" transform="matrix(0.518934 0.854815 -0.8795 0.475899 222.279 1617.71)" stroke="#BBAACC" stroke-width="0.5"/>
<rect x="-0.0901415" y="0.332679" width="879.154" height="662.41" rx="99.75" transform="matrix(0.518934 0.854815 -0.8795 0.475899 424.307 752.906)" stroke="#BBAACC" stroke-width="0.5"/>
<rect x="-0.0901415" y="0.332679" width="879.154" height="662.41" rx="99.75" transform="matrix(0.518934 0.854815 -0.8795 0.475899 924.307 752.906)" stroke="#BBAACC" stroke-width="0.5"/>
<rect x="-0.0901415" y="0.332679" width="879.154" height="662.41" rx="99.75" transform="matrix(0.518934 0.854815 -0.8795 0.475899 1424.28 752.906)" stroke="#BBAACC" stroke-width="0.5"/>
<rect x="-0.0901415" y="0.332679" width="879.154" height="662.41" rx="99.75" transform="matrix(0.518934 0.854815 -0.8795 0.475899 1924.28 752.906)" stroke="#BBAACC" stroke-width="0.5"/>
<rect x="-0.0901415" y="0.332679" width="879.154" height="662.41" rx="99.75" transform="matrix(0.518934 0.854815 -0.8795 0.475899 -75.7215 752.906)" stroke="#BBAACC" stroke-width="0.5"/>
<rect x="-0.0901415" y="0.332679" width="879.154" height="662.41" rx="99.75" transform="matrix(0.518934 0.854815 -0.8795 0.475899 127.307 -110.949)" stroke="#BBAACC" stroke-width="0.5"/>
<rect x="-0.0901415" y="0.332679" width="879.154" height="662.41" rx="99.75" transform="matrix(0.518934 0.854815 -0.8795 0.475899 627.307 -110.949)" stroke="#BBAACC" stroke-width="0.5"/>
<rect x="-0.0901415" y="0.332679" width="879.154" height="662.41" rx="99.75" transform="matrix(0.518934 0.854815 -0.8795 0.475899 1127.28 -110.949)" stroke="#BBAACC" stroke-width="0.5"/>
<rect x="-0.0901415" y="0.332679" width="879.154" height="662.41" rx="99.75" transform="matrix(0.518934 0.854815 -0.8795 0.475899 1627.28 -110.949)" stroke="#BBAACC" stroke-width="0.5"/>
<rect x="-0.0901415" y="0.332679" width="879.154" height="662.41" rx="99.75" transform="matrix(0.518934 0.854815 -0.8795 0.475899 -372.721 -110.949)" stroke="#BBAACC" stroke-width="0.5"/>
<rect x="-0.0901415" y="0.332679" width="879.154" height="662.41" rx="99.75" transform="matrix(0.518934 0.854815 -0.8795 0.475899 331.307 -975.749)" stroke="#BBAACC" stroke-width="0.5"/>
<rect x="-0.0901415" y="0.332679" width="879.154" height="662.41" rx="99.75" transform="matrix(0.518934 0.854815 -0.8795 0.475899 831.307 -975.749)" stroke="#BBAACC" stroke-width="0.5"/>
<rect x="-0.0901415" y="0.332679" width="879.154" height="662.41" rx="99.75" transform="matrix(0.518934 0.854815 -0.8795 0.475899 1331.28 -975.749)" stroke="#BBAACC" stroke-width="0.5"/>
<rect x="-0.0901415" y="0.332679" width="879.154" height="662.41" rx="99.75" transform="matrix(0.518934 0.854815 -0.8795 0.475899 1831.28 -975.749)" stroke="#BBAACC" stroke-width="0.5"/>
<rect x="-0.0901415" y="0.332679" width="879.154" height="662.41" rx="99.75" transform="matrix(0.518934 0.854815 -0.8795 0.475899 -168.721 -975.749)" stroke="#BBAACC" stroke-width="0.5"/>
</g>
<defs>
<clipPath id="clip0_43_527">
<rect width="1440" height="1853" fill="white"/>
</clipPath>
</defs>
</svg>
